<?xml version="1.0" encoding="UTF-8"?>
<!DOCTYPE svg PUBLIC "-//W3C//DTD SVG 1.1//EN" "http://www.w3.org/Graphics/SVG/1.1/DTD/svg11.dtd">
<!-- Creator: CorelDRAW X7 -->
<svg xmlns="http://www.w3.org/2000/svg" xml:space="preserve" width="202.142mm" height="46.5666mm" version="1.1" style="shape-rendering:geometricPrecision; text-rendering:geometricPrecision; image-rendering:optimizeQuality; fill-rule:evenodd; clip-rule:evenodd"
viewBox="0 0 20214 4657"
 xmlns:xlink="http://www.w3.org/1999/xlink">
 <defs>
  <style type="text/css">
   <![CDATA[
    .fil0 {fill:#FEFEFE}
    .fil2 {fill:#46255B}
    .fil1 {fill:#D95900}
    .fil3 {fill:#FEFEFE;fill-rule:nonzero}
   ]]>
  </style>
 </defs>
 <g id="Layer_x0020_1">
  <metadata id="CorelCorpID_0Corel-Layer"/>
  <polygon class="fil0" points="2337,988 16660,988 16023,2702 2337,2702 "/>
  <polygon class="fil1" points="11734,1161 20230,1163 19718,2530 10855,2530 "/>
  <path class="fil2" d="M4191 1161l534 0 209 809 260 -809 498 0 -410 1090 -99 267 -156 0c-266,0 -464,-158 -508,-301l-328 -1056z"/>
  <path class="fil2" d="M5978 1161l1345 0 -104 285 -803 0 -78 212 738 0 -99 273 -738 0 -95 263 829 0 -110 302 -815 0c-332,0 -460,-252 -441,-305l371 -1030z"/>
  <path class="fil2" d="M7606 1161l541 0 -367 1006 563 0 -120 329 -516 0c-325,0 -518,-190 -481,-292l380 -1043z"/>
  <polygon class="fil2" points="8843,1161 9385,1161 8899,2496 8357,2496 "/>
  <polygon class="fil2" points="9580,1161 11111,1161 10991,1491 10439,1491 10073,2496 9533,2496 9899,1491 9459,1491 "/>
  <path class="fil0" d="M1947 33c188,-92 401,-72 547,73l1004 1004c340,341 336,855 -6,1197l-989 989c-158,158 -373,176 -558,80 -187,94 -410,66 -551,-75l-1253 -1253c-100,-99 -147,-225 -140,-365 5,-125 52,-232 140,-320l1253 -1253c89,-88 202,-134 318,-136l14 0c75,1 151,20 221,59z"/>
  <path class="fil2" d="M2910 2268l-124 124 -479 0 -39 -90 642 -34zm222 -222l-140 140 -773 0 -39 -90 952 -50 0 0zm161 -219c-18,55 -49,106 -92,150l-3 3 -1067 0 -39 -90 1201 -63 0 0zm-114 -414l22 21c39,40 68,86 87,135l-1024 0 37 -41 -28 -66 906 -49 0 0zm-203 -204l154 154 -899 0 -49 -115 794 -39 0 0zm-2718 225c-149,149 -149,394 0,543l1200 1200c149,149 394,149 543,0l687 -687 -344 18 -1 -2 -197 202 -402 -933 1562 0c10,-53 8,-107 -4,-158l-1112 61 -37 41 -148 -326 -421 0 -100 -236 1440 0 -923 -922c-149,-150 -394,-150 -543,0l-1200 1199 0 0zm1269 -653c78,0 141,64 141,141 0,78 -63,142 -141,142 -78,0 -141,-64 -141,-142 0,-77 63,-141 141,-141l0 0zm491 927l-516 0 8 301 -240 220 0 -752 644 0 104 231 0 0z"/>
  <path class="fil1" d="M3148 2466l-711 711c-119,119 -298,143 -442,72 37,-18 71,-42 102,-72l692 -692 359 -19zm223 -223l-149 149 -340 0 129 -130 360 -19 0 0zm172 -219c-30,57 -69,111 -116,162l-340 0 146 -146 310 -16 0 0zm75 -215c-10,59 -28,116 -53,171l-279 0c38,-50 64,-103 79,-157l253 -14 0 0zm2 -210c9,59 10,117 3,176l-248 0c8,-54 5,-109 -7,-162l252 -14 0 0zm-69 -207c30,58 52,117 64,177l-260 0c-19,-57 -49,-111 -90,-161l286 -16 0 0zm-159 -203l28 29c46,46 84,94 114,145l-309 0c0,0 0,0 0,0l-158 -158 325 -16 0 0zm-1397 -1027c144,-71 323,-47 442,73l923 922 -341 0 -922 -922c-31,-31 -65,-55 -102,-73l0 0z"/>
  <polygon class="fil1" points="1104,1153 1324,1153 1425,1398 1204,1398 "/>
  <path class="fil0" d="M1527 1064c78,0 141,-64 141,-142 0,-77 -63,-141 -141,-141 -78,0 -141,64 -141,141 0,78 63,142 141,142z"/>
  <path class="fil2" d="M19205 2753l-27 91 -92 0 -17 58 92 0 -54 177c-8,30 -16,59 -18,83 -4,49 13,82 87,82 22,0 44,-3 72,-12l19 -62c-20,8 -35,11 -51,11 -33,0 -50,-16 -48,-44 2,-17 6,-38 19,-80l47 -155 105 0 17 -58 -106 0 36 -116 -81 25zm-253 78c-127,0 -160,70 -164,121 -5,52 38,82 74,109 26,16 51,43 49,67 -4,51 -59,62 -86,62 -26,0 -64,-11 -93,-48l-23 68c26,32 66,39 105,39 43,0 88,-2 116,-21 35,-23 59,-55 63,-99 5,-60 -31,-94 -69,-118 -26,-17 -57,-36 -55,-63 4,-40 38,-60 77,-60 29,0 58,14 78,44l27 -63c-25,-27 -67,-38 -99,-38l0 0zm-554 277c7,-83 59,-168 152,-211 21,-9 46,-12 68,-12 13,0 25,0 33,3l-56 175c-23,74 -66,124 -138,124 -38,0 -64,-23 -59,-79l0 0zm174 -269c26,-6 51,-8 73,-8 21,0 71,6 88,11l-78 262c-13,45 -24,93 -29,135l-74 0c7,-26 12,-44 21,-70 -46,50 -95,76 -156,76 -68,0 -97,-56 -89,-142 5,-67 61,-221 244,-264l0 0zm-217 -187c-116,0 -158,100 -186,192l-93 0 -18 58 94 0 -102 337 75 0 100 -337 108 0 18 -58 -108 0 6 -20c16,-54 36,-109 102,-109 12,0 21,1 37,5l18 -62c-19,-5 -31,-6 -51,-6l0 0zm-681 101l80 -25 -35 116 105 0 -16 58 -106 0 -47 155c-12,42 -17,63 -18,80 -3,28 14,44 47,44 16,0 31,-3 51,-11l-19 62c-27,9 -49,12 -72,12 -73,0 -91,-33 -86,-82 2,-24 9,-53 18,-83l53 -177 -92 0 18 -58 91 0 28 -91 0 0zm-206 -86l-24 81 80 0 25 -81 -81 0 0 0zm-47 175l-120 397 75 0 118 -397 -73 0 0 0zm-458 -89l-28 91 -91 0 -17 58 92 0 -54 177c-9,30 -16,59 -18,83 -4,49 13,82 86,82 23,0 45,-3 72,-12l20 -62c-21,8 -35,11 -51,11 -33,0 -51,-16 -48,-44 1,-17 6,-38 19,-80l46 -155 106 0 17 -58 -106 0 36 -116 -81 25 0 0zm-315 136c-58,0 -124,52 -154,127 137,0 196,-54 199,-86 2,-27 -18,-41 -45,-41l0 0zm36 262l-18 82c-27,12 -80,16 -113,16 -104,0 -157,-63 -149,-162 11,-123 107,-256 260,-256 63,0 113,22 106,95 -5,64 -86,140 -289,141l-1 8c-6,72 32,112 97,112 29,0 65,-4 107,-36l0 0zm-623 -43c7,-83 59,-168 152,-211 21,-9 46,-12 68,-12 13,0 25,0 33,3l-56 175c-24,74 -66,124 -138,124 -38,0 -64,-23 -59,-79l0 0zm-149 283c39,14 76,19 121,19 169,0 222,-96 265,-240l98 -328c-16,-5 -50,-11 -87,-11 -23,0 -48,2 -73,8 -183,43 -240,197 -245,264 -8,86 21,142 90,142 61,0 104,-21 147,-71 -14,38 -21,78 -49,114 -30,38 -75,60 -129,60 -38,0 -72,-8 -106,-23l-32 66 0 0zm-262 -549l-61 201c-26,87 -84,143 -151,143 -45,0 -65,-23 -60,-80 2,-24 8,-52 19,-87l53 -177 -74 0 -59 201c-7,26 -13,51 -15,75 -6,71 18,127 108,127 56,0 101,-23 146,-68l-15 62 68 0c12,-49 23,-97 39,-147l75 -250 -73 0 0 0zm-730 242c8,-89 74,-192 164,-192 56,0 84,43 78,111 -8,87 -74,188 -162,188 -56,0 -85,-42 -80,-107l0 0zm-72 10c11,-129 121,-263 257,-263 103,0 141,62 132,159 -13,155 -138,259 -255,259 -97,0 -142,-62 -134,-155l0 0zm-4 -252l-175 269c-14,21 -26,42 -35,64 2,-12 2,-17 3,-25 1,-14 2,-30 0,-57l-13 -251 -80 0 29 413c-26,44 -66,93 -118,93 -12,0 -19,-1 -32,-7l-22 59c19,5 28,7 43,7 103,0 159,-90 213,-172l259 -393 -72 0 0 0z"/>
  <polygon class="fil2" points="11097,1161 20051,1163 19538,2530 10572,2530 "/>
  <polygon class="fil3" points="10964,2231 11238,1445 11345,1445 11100,2147 11439,2147 11410,2231 "/>
  <path class="fil3" d="M11849 2167c75,0 144,-29 206,-87 62,-59 111,-140 148,-243 35,-103 43,-184 21,-242 -22,-58 -71,-87 -145,-87 -75,0 -144,29 -206,87 -62,58 -111,139 -147,242 -36,103 -44,184 -22,243 22,58 70,87 145,87zm-29 83c-107,0 -179,-37 -217,-112 -38,-75 -35,-175 9,-300 44,-126 111,-226 201,-301 89,-74 188,-112 295,-112 106,0 179,38 216,112 38,75 35,175 -8,301 -44,125 -111,225 -201,300 -90,75 -188,112 -295,112z"/>
  <path class="fil3" d="M12901 2209c-101,28 -185,41 -253,41 -119,0 -199,-35 -238,-106 -39,-71 -35,-173 11,-306 46,-131 113,-233 203,-305 90,-72 194,-108 312,-108 75,0 150,12 225,36l-36 103c-91,-37 -164,-56 -219,-56 -82,0 -155,29 -220,87 -65,57 -115,138 -152,243 -36,104 -40,185 -12,242 28,58 85,87 172,87 35,0 76,-7 122,-20l89 -256 107 0 -111 318z"/>
  <polygon class="fil3" points="13080,2231 13354,1445 13461,1445 13187,2231 "/>
  <path class="fil3" d="M13339 2216l39 -111c70,41 133,62 188,62 41,0 79,-12 113,-35 34,-23 57,-53 70,-90 11,-31 11,-57 2,-79 -9,-21 -32,-46 -68,-72l-40 -31c-51,-39 -84,-75 -98,-109 -15,-33 -14,-73 1,-117 21,-61 60,-111 116,-150 55,-39 116,-59 181,-59 58,0 115,10 172,30l-35 102c-68,-32 -121,-49 -160,-49 -37,0 -71,11 -103,31 -31,21 -52,47 -63,78 -9,26 -8,49 2,69 11,21 35,45 72,73l43 32c51,38 84,75 98,109 14,34 12,76 -5,124 -23,68 -67,123 -129,164 -63,42 -134,62 -213,62 -51,0 -112,-11 -183,-34z"/>
  <polygon class="fil3" points="14120,2231 14365,1528 14098,1528 14127,1445 14767,1445 14738,1528 14471,1528 14227,2231 "/>
  <polygon class="fil3" points="14599,2231 14873,1445 14979,1445 14706,2231 "/>
  <path class="fil3" d="M15479 2190c-89,40 -176,60 -264,60 -117,0 -195,-35 -234,-107 -39,-71 -35,-173 11,-305 46,-131 114,-233 203,-305 91,-72 195,-108 313,-108 67,0 142,12 224,35l-36 104c-90,-37 -163,-56 -219,-56 -82,0 -155,29 -220,87 -65,58 -116,139 -152,244 -35,101 -39,180 -11,238 27,57 83,86 166,86 71,0 155,-23 252,-68l-33 95z"/>
  <path class="fil3" d="M16522 2209c-101,28 -185,41 -253,41 -120,0 -199,-35 -238,-106 -39,-71 -36,-173 11,-306 45,-131 113,-233 203,-305 90,-72 194,-108 311,-108 76,0 151,12 226,36l-36 103c-91,-37 -164,-56 -219,-56 -82,0 -155,29 -220,87 -65,57 -116,138 -152,243 -36,104 -40,185 -12,242 27,58 85,87 171,87 36,0 77,-7 123,-20l89 -256 106 0 -110 318z"/>
  <path class="fil3" d="M16952 1815l35 0c65,0 121,-14 164,-42 45,-28 76,-69 95,-123 28,-81 -14,-122 -127,-122l-67 0 -100 287zm-251 416l274 -786 228 0c72,0 122,16 149,50 26,33 29,81 7,145 -18,50 -46,94 -87,133 -40,39 -88,69 -143,90l123 368 -131 0 -99 -333 -99 0 -116 333 -106 0z"/>
  <path class="fil3" d="M17689 2167c75,0 144,-29 206,-87 63,-59 112,-140 148,-243 36,-103 43,-184 21,-242 -22,-58 -70,-87 -145,-87 -75,0 -144,29 -206,87 -62,58 -111,139 -147,242 -36,103 -43,184 -21,243 21,58 70,87 144,87zm-29 83c-106,0 -179,-37 -216,-112 -38,-75 -35,-175 8,-300 44,-126 111,-226 201,-301 90,-74 188,-112 295,-112 107,0 179,38 217,112 37,75 35,175 -9,301 -44,125 -111,225 -201,300 -89,75 -188,112 -295,112z"/>
  <path class="fil3" d="M18436 1445l107 0 -173 496c-28,79 -34,136 -18,172 15,36 53,54 114,54 60,0 108,-17 145,-51 36,-33 69,-91 97,-171l174 -500 94 0 -174 498c-24,69 -48,121 -74,158 -26,37 -60,69 -104,97 -54,35 -117,52 -191,52 -95,0 -157,-25 -184,-75 -27,-50 -23,-129 15,-235l172 -495z"/>
  <path class="fil3" d="M19134 1834l43 0c63,0 118,-15 163,-46 45,-30 77,-73 97,-129 16,-47 14,-80 -6,-101 -21,-20 -62,-30 -125,-30l-66 0 -106 306zm-244 397l274 -786 204 0c59,0 103,5 132,15 28,10 48,28 60,53 15,34 12,80 -8,138 -29,83 -79,149 -150,196 -71,48 -154,71 -250,71l-48 0 -108 313 -106 0z"/>
 </g>
</svg>
