<svg id="Layer_1" data-name="Layer 1" xmlns="http://www.w3.org/2000/svg" viewBox="0 0 573.46 132.75"><defs><style>.cls-1,.cls-5{fill:#fff;}.cls-1,.cls-2,.cls-3{fill-rule:evenodd;}.cls-2{fill:#e75300;}.cls-3,.cls-4{fill:#390a5d;}</style></defs><title>Logo</title><polygon class="cls-1" points="66.24 28.77 472.25 28.77 454.19 77.35 66.24 77.35 66.24 28.77"/><polygon class="cls-2" points="332.62 33.65 573.46 33.72 558.94 72.47 307.7 72.47 332.62 33.65"/><path class="cls-3" d="M129.87,42H145l5.91,22.94L158.31,42h14.1L160.8,72.87,158,80.43h-4.41c-7.54,0-13.15-4.48-14.4-8.52Z" transform="translate(-11.07 -8.31)"/><path class="cls-3" d="M180.52,42h38.13L215.7,50H192.94l-2.19,6h20.91l-2.81,7.72H187.93l-2.71,7.46h23.52l-3.12,8.58h-23.1c-9.41,0-13.05-7.15-12.51-8.66Z" transform="translate(-11.07 -8.31)"/><path class="cls-3" d="M226.67,42H242L231.62,70.5h15.94l-3.4,9.33H229.54c-9.21,0-14.68-5.39-13.63-8.28Z" transform="translate(-11.07 -8.31)"/><polygon class="cls-3" points="250.66 33.65 266.02 33.65 252.24 71.52 236.88 71.52 250.66 33.65"/><polygon class="cls-3" points="271.55 33.65 314.96 33.65 311.56 43.01 295.92 43.01 285.54 71.52 270.21 71.52 280.59 43.01 268.14 43.01 271.55 33.65"/><path class="cls-1" d="M66.26,10c5.34-2.62,11.36-2.06,15.49,2.07l28.46,28.46c9.65,9.66,9.52,24.23-.17,33.93l-28,28a13.09,13.09,0,0,1-15.81,2.25,13.48,13.48,0,0,1-15.61-2.11L15.07,67.12a13.78,13.78,0,0,1,0-19.41L50.6,12.19A13,13,0,0,1,66.26,10Z" transform="translate(-11.07 -8.31)"/><path class="cls-3" d="M68.27,57.48l-14.63,0L53.88,66l-6.8,6.24V50.92H65.34l2.93,6.56ZM54.35,31.21a4,4,0,1,1-4,4,4,4,0,0,1,4-4Zm-36,18.51a10.91,10.91,0,0,0,0,15.39l34,34a10.92,10.92,0,0,0,15.4,0L87.26,79.64l-9.75.52,0-.05-5.59,5.71L60.51,59.38l44.29,0a11,11,0,0,0-.12-4.48L73.16,56.62l-1.06,1.17-4.18-9.25H56l-2.84-6.7h40.8L67.8,15.71a10.92,10.92,0,0,0-15.4,0l-34,34Zm77-6.38,4.36,4.36H74.31l-1.39-3.27,22.51-1.1Zm5.76,5.76.62.62a10.79,10.79,0,0,1,2.47,3.81h-29l1-1.16-.8-1.87,25.69-1.4Zm3.24,11.74a10.73,10.73,0,0,1-2.62,4.27l-.09.09H71.48l-1.09-2.55,34-1.81ZM99.86,67l-4,4H74l-1.09-2.54,27-1.43Zm-6.3,6.3-3.51,3.51H76.46l-1.09-2.55Z" transform="translate(-11.07 -8.31)"/><path class="cls-2" d="M67.63,13.66a10.92,10.92,0,0,1,12.53,2.05l26.15,26.15H96.66L70.5,15.71a10.67,10.67,0,0,0-2.87-2.05Zm39.58,29.11.81.8a21.28,21.28,0,0,1,3.24,4.13h-8.78L98,43.22l9.21-.45Zm4.52,5.75a18.61,18.61,0,0,1,1.81,5h-7.36A14.73,14.73,0,0,0,103.64,49l8.1-.44Zm2,5.87a18.19,18.19,0,0,1,.08,5h-7.05a12.15,12.15,0,0,0-.19-4.58l7.16-.39Zm-.06,6a20,20,0,0,1-1.51,4.84h-7.92a13.05,13.05,0,0,0,2.23-4.46l7.19-.38Zm-2.12,6.08a22.52,22.52,0,0,1-3.3,4.6H98.59l4.13-4.13,8.79-.47Zm-4.9,6.23-4.2,4.2H92.76l3.66-3.67,10.2-.54Zm-6.3,6.3L80.16,99.11a10.93,10.93,0,0,1-12.53,2.05,10.68,10.68,0,0,0,2.87-2.05L90.12,79.49Z" transform="translate(-11.07 -8.31)"/><polygon class="cls-2" points="31.3 33.43 37.52 33.43 40.41 40.37 34.13 40.37 31.3 33.43"/><path class="cls-1" d="M54.35,39.22a4,4,0,1,0-4-4A4,4,0,0,0,54.35,39.22Z" transform="translate(-11.07 -8.31)"/><path class="cls-3" d="M431.84,89.63l-5,7.62a12.18,12.18,0,0,0-1,1.79c.05-.33.06-.48.08-.7a9.46,9.46,0,0,0,0-1.63l-.36-7.09h-2.25l.8,11.7c-.73,1.24-1.86,2.64-3.32,2.64a1.87,1.87,0,0,1-.92-.19l-.62,1.68a4.17,4.17,0,0,0,1.23.19c2.92,0,4.51-2.56,6-4.89l7.35-11.11Zm.12,7.14c.32-3.67,3.43-7.45,7.29-7.45,2.92,0,4,1.75,3.75,4.48-.39,4.41-3.93,7.36-7.23,7.36-2.76,0-4-1.75-3.81-4.39Zm2.06-.29C434.24,94,436.1,91,438.66,91c1.58,0,2.36,1.22,2.19,3.16-.22,2.47-2.09,5.32-4.59,5.32-1.58,0-2.41-1.17-2.25-3Zm20.68-6.85L453,95.33c-.74,2.45-2.39,4.05-4.29,4.05-1.27,0-1.83-.67-1.69-2.28a12.18,12.18,0,0,1,.53-2.47l1.52-5h-2.11l-1.67,5.69a11.12,11.12,0,0,0-.42,2.11c-.18,2,.5,3.6,3.06,3.6A5.67,5.67,0,0,0,452,99.12l-.44,1.75h1.94c.33-1.38.65-2.76,1.08-4.15l2.13-7.08Zm7.43,15.55a9.88,9.88,0,0,0,3.43.53c4.79,0,6.3-2.7,7.52-6.8l2.78-9.27a9.83,9.83,0,0,0-4.55-.09,8.86,8.86,0,0,0-7,7.49c-.21,2.42.61,4,2.55,4a5,5,0,0,0,4.17-2,10.52,10.52,0,0,1-1.38,3.24A4.51,4.51,0,0,1,466,104a7.15,7.15,0,0,1-3-.65l-.91,1.87Zm4.23-8a7.29,7.29,0,0,1,4.31-6,4.81,4.81,0,0,1,1.92-.36,3.28,3.28,0,0,1,.93.09l-1.59,5c-.66,2.09-1.87,3.53-3.9,3.53-1.08,0-1.81-.65-1.67-2.25ZM484,98.38l-.52,2.32a9.5,9.5,0,0,1-3.18.46c-2.94,0-4.46-1.8-4.22-4.58.31-3.49,3-7.26,7.35-7.26,1.79,0,3.21.6,3,2.68-.15,1.83-2.43,4-8.21,4l0,.22c-.18,2.05.9,3.19,2.74,3.19a4.61,4.61,0,0,0,3-1ZM483,91c-1.63,0-3.51,1.49-4.35,3.59,3.88,0,5.55-1.51,5.63-2.44.07-.74-.5-1.15-1.28-1.15Zm8.94-3.86-.78,2.59h-2.58l-.5,1.63h2.61l-1.52,5a13.21,13.21,0,0,0-.52,2.34c-.12,1.39.37,2.33,2.46,2.33a6.66,6.66,0,0,0,2-.33l.54-1.77a3.65,3.65,0,0,1-1.44.33c-.94,0-1.43-.45-1.35-1.27a10.92,10.92,0,0,1,.54-2.25l1.32-4.4h3l.47-1.63h-3l1-3.29-2.29.7Zm13,2.54-3.38,11.23h2.11L507,89.63Zm1.35-5-.68,2.3h2.28l.68-2.3Zm5.82,2.44,2.29-.7-1,3.29h3l-.47,1.63h-3l-1.32,4.4A11.44,11.44,0,0,0,511,98c-.07.82.42,1.27,1.35,1.27a3.65,3.65,0,0,0,1.45-.33l-.54,1.77a6.6,6.6,0,0,1-2,.33c-2.08,0-2.58-.94-2.46-2.33a13.27,13.27,0,0,1,.52-2.34l1.51-5h-2.61l.5-1.63h2.59l.78-2.59Zm19.32-2.85c-3.29,0-4.49,2.83-5.27,5.44h-2.64L523,91.31h2.66l-2.87,9.55h2.11l2.85-9.55h3.06l.5-1.63H528.2l.17-.58c.45-1.53,1-3.09,2.9-3.09a3.61,3.61,0,0,1,1,.15l.51-1.75a5.13,5.13,0,0,0-1.45-.17Zm6.15,5.3a8.83,8.83,0,0,1,2.07-.22,11.85,11.85,0,0,1,2.49.32l-2.21,7.43a23.81,23.81,0,0,0-.84,3.81H537a20.42,20.42,0,0,1,.58-2,5.7,5.7,0,0,1-4.41,2.16c-1.94,0-2.76-1.59-2.55-4a8.83,8.83,0,0,1,6.94-7.49Zm-4.93,7.61a7.27,7.27,0,0,1,4.3-6,4.85,4.85,0,0,1,1.93-.36,3.22,3.22,0,0,1,.92.09l-1.58,5c-.66,2.09-1.87,3.53-3.9,3.53-1.08,0-1.81-.65-1.67-2.25Zm15.7-7.84c-3.61,0-4.53,2-4.66,3.41s1.06,2.35,2.1,3.11c.72.46,1.45,1.22,1.39,1.89-.13,1.44-1.67,1.75-2.46,1.75A3.49,3.49,0,0,1,542,98.14l-.63,1.92a3.65,3.65,0,0,0,3,1.1,6.31,6.31,0,0,0,3.29-.6,3.72,3.72,0,0,0,1.78-2.8,3.47,3.47,0,0,0-2-3.33c-.75-.48-1.61-1-1.55-1.79a2,2,0,0,1,2.16-1.71,2.61,2.61,0,0,1,2.21,1.24l.78-1.79a4,4,0,0,0-2.81-1.06Zm7.17-2.23-.78,2.59H552.1l-.5,1.63h2.62l-1.52,5a13.2,13.2,0,0,0-.51,2.34c-.13,1.39.37,2.33,2.45,2.33a6.67,6.67,0,0,0,2-.33l.54-1.77a3.6,3.6,0,0,1-1.44.33c-.94,0-1.42-.45-1.35-1.27a10.75,10.75,0,0,1,.53-2.25l1.33-4.4h3l.48-1.63h-3l1-3.29Z" transform="translate(-11.07 -8.31)"/><path class="cls-4" d="M20.78,135l7.55-20.74h7.78a8,8,0,0,1,3.59.63,2.93,2.93,0,0,1,1.54,1.94,4.54,4.54,0,0,1-.18,2.73A7,7,0,0,1,39.42,122a8.56,8.56,0,0,1-2.87,1.89,3.32,3.32,0,0,1,2.21,1.88,4.38,4.38,0,0,1-.13,3.15,8.69,8.69,0,0,1-1.6,2.7,8.94,8.94,0,0,1-2.22,1.93,9.26,9.26,0,0,1-2.65,1,15.42,15.42,0,0,1-3.47.34Zm3.64-2.45h5.16a12.41,12.41,0,0,0,1.9-.1,6.12,6.12,0,0,0,1.79-.57,5.11,5.11,0,0,0,1.47-1.15,5.23,5.23,0,0,0,1-1.74,3.08,3.08,0,0,0,.14-2,1.88,1.88,0,0,0-1.21-1.2,8.85,8.85,0,0,0-2.91-.35H27Zm3.49-9.58h4.48a11.06,11.06,0,0,0,2.7-.24,4.66,4.66,0,0,0,2-1,4.46,4.46,0,0,0,1.19-1.81,3,3,0,0,0,.17-1.82,1.49,1.49,0,0,0-1-1.07,10.52,10.52,0,0,0-3-.29H30.18Z" transform="translate(-11.07 -8.31)"/><path class="cls-4" d="M49.73,135l.8-2.21a8.19,8.19,0,0,1-5.69,2.55,4.89,4.89,0,0,1-2.3-.51,2.44,2.44,0,0,1-1.25-1.28,3.86,3.86,0,0,1-.1-1.89,14.71,14.71,0,0,1,.71-2.37l3.39-9.31h2.55l-3,8.33A16.65,16.65,0,0,0,44,131a1.79,1.79,0,0,0,.44,1.58,2.31,2.31,0,0,0,1.71.57,5.41,5.41,0,0,0,2.36-.58,5.48,5.48,0,0,0,2-1.6A10.85,10.85,0,0,0,52,128l2.93-8h2.55L52,135Z" transform="translate(-11.07 -8.31)"/><path class="cls-4" d="M55.95,135l7.55-20.74H66L58.49,135Z" transform="translate(-11.07 -8.31)"/><path class="cls-4" d="M61.52,136.21l2.34.37a1.74,1.74,0,0,0,.26,1.67,3.19,3.19,0,0,0,2.33.7,5.49,5.49,0,0,0,5-2.68A20.63,20.63,0,0,0,72.83,133,7.6,7.6,0,0,1,68,135q-3.1,0-4-2.23a7.44,7.44,0,0,1,.25-5.36,14.22,14.22,0,0,1,2.22-4,10.73,10.73,0,0,1,3.28-2.81,8,8,0,0,1,3.83-1,3.56,3.56,0,0,1,3.6,2.15l.66-1.81h2.35l-4.73,13a17,17,0,0,1-2.52,5,8.92,8.92,0,0,1-3.11,2.32,9.88,9.88,0,0,1-4.12.85,5.38,5.38,0,0,1-3.9-1.21Q60.58,138.64,61.52,136.21Zm5.39-9q-1.07,3-.39,4.32A2.48,2.48,0,0,0,69,132.85a5.43,5.43,0,0,0,3.43-1.35,9.41,9.41,0,0,0,2.73-4.24q1-2.76.29-4.16a2.52,2.52,0,0,0-2.44-1.4,5.37,5.37,0,0,0-3.39,1.38A9.23,9.23,0,0,0,66.91,127.18Z" transform="translate(-11.07 -8.31)"/><path class="cls-4" d="M89,133.11a14.93,14.93,0,0,1-3.34,1.7,9.5,9.5,0,0,1-3,.5q-2.47,0-3.37-1.21a3.14,3.14,0,0,1-.2-3.09,6,6,0,0,1,1.23-2,7.07,7.07,0,0,1,1.85-1.47,9.23,9.23,0,0,1,2.14-.83,22.38,22.38,0,0,1,2.4-.38,28.29,28.29,0,0,0,4.86-.88l.25-.66q.57-1.56.08-2.19a3.11,3.11,0,0,0-2.58-.86,5.71,5.71,0,0,0-2.88.63,6.45,6.45,0,0,0-2.08,2.23L82,124.22a10,10,0,0,1,2.06-2.58,7.87,7.87,0,0,1,2.8-1.51,11.67,11.67,0,0,1,3.61-.53,7.59,7.59,0,0,1,3,.46,2.47,2.47,0,0,1,1.35,1.14,3.1,3.1,0,0,1,.16,1.73,16.3,16.3,0,0,1-.73,2.35L93,128.67a41.73,41.73,0,0,0-1.47,4.49,4.78,4.78,0,0,0,0,1.8H88.87A4.84,4.84,0,0,1,89,133.11Zm1.86-5.68a23.36,23.36,0,0,1-4.51,1,12.49,12.49,0,0,0-2.41.51,3.63,3.63,0,0,0-1.3.83,3.24,3.24,0,0,0-.8,1.21,1.69,1.69,0,0,0,.15,1.7,2.44,2.44,0,0,0,2,.68,6.88,6.88,0,0,0,5.18-2.41,8.52,8.52,0,0,0,1.34-2.55Z" transform="translate(-11.07 -8.31)"/><path class="cls-4" d="M94.63,135l5.47-15h2.29l-.83,2.28a10.73,10.73,0,0,1,2.39-2.11,3.73,3.73,0,0,1,1.82-.51,3.64,3.64,0,0,1,2.32.82l-1.74,2.37a2.68,2.68,0,0,0-1.67-.55,3.26,3.26,0,0,0-1.68.5,4.59,4.59,0,0,0-1.46,1.39,13.64,13.64,0,0,0-1.5,3L97.18,135Z" transform="translate(-11.07 -8.31)"/><path class="cls-4" d="M104.33,135l5.47-15h2.55l-5.47,15Zm6.48-17.81,1.06-2.93h2.55l-1.06,2.93Z" transform="translate(-11.07 -8.31)"/><path class="cls-4" d="M121.23,133.11a14.94,14.94,0,0,1-3.34,1.7,9.5,9.5,0,0,1-3,.5q-2.47,0-3.37-1.21a3.14,3.14,0,0,1-.2-3.09,6,6,0,0,1,1.23-2,7.07,7.07,0,0,1,1.85-1.47,9.23,9.23,0,0,1,2.14-.83,22.42,22.42,0,0,1,2.4-.38,28.29,28.29,0,0,0,4.86-.88l.25-.66q.57-1.56.08-2.19a3.12,3.12,0,0,0-2.58-.86,5.71,5.71,0,0,0-2.88.63,6.45,6.45,0,0,0-2.08,2.23l-2.37-.34a10,10,0,0,1,2.06-2.58,7.87,7.87,0,0,1,2.8-1.51,11.67,11.67,0,0,1,3.6-.53,7.59,7.59,0,0,1,3,.46,2.47,2.47,0,0,1,1.35,1.14,3.1,3.1,0,0,1,.16,1.73,16.28,16.28,0,0,1-.73,2.35l-1.24,3.4a41.56,41.56,0,0,0-1.47,4.49,4.78,4.78,0,0,0,0,1.8h-2.66A4.84,4.84,0,0,1,121.23,133.11Zm1.86-5.68a23.36,23.36,0,0,1-4.51,1,12.49,12.49,0,0,0-2.41.51,3.63,3.63,0,0,0-1.3.83,3.23,3.23,0,0,0-.8,1.21,1.69,1.69,0,0,0,.15,1.7,2.44,2.44,0,0,0,2,.68,6.88,6.88,0,0,0,5.18-2.41,8.52,8.52,0,0,0,1.34-2.55Z" transform="translate(-11.07 -8.31)"/><path class="cls-4" d="M126.86,135l5.47-15h2.29l-.78,2.13a8,8,0,0,1,5.68-2.48,5.1,5.1,0,0,1,2.32.49,2.36,2.36,0,0,1,1.24,1.28,3.88,3.88,0,0,1,.11,1.88,16.63,16.63,0,0,1-.76,2.48L139.07,135h-2.55l3.33-9.14a7.15,7.15,0,0,0,.55-2.33,1.52,1.52,0,0,0-.61-1.23,2.57,2.57,0,0,0-1.61-.46,5.68,5.68,0,0,0-3.18,1,7.67,7.67,0,0,0-2.61,3.92l-3,8.2Z" transform="translate(-11.07 -8.31)"/><path class="cls-4" d="M168.79,127.69l2.49.7a15.46,15.46,0,0,1-5,5.16,11.52,11.52,0,0,1-6.13,1.77,7.53,7.53,0,0,1-5-1.36,5.34,5.34,0,0,1-1.76-4,13.87,13.87,0,0,1,.93-5.56,17.68,17.68,0,0,1,3.3-5.65,14.38,14.38,0,0,1,4.85-3.66,13.09,13.09,0,0,1,5.49-1.25,6.25,6.25,0,0,1,4.65,1.58,5.51,5.51,0,0,1,1.34,4.46l-2.94.64a4.32,4.32,0,0,0-.89-3.3,4.09,4.09,0,0,0-3.07-1,8.81,8.81,0,0,0-4.41,1.14,10.17,10.17,0,0,0-3.38,3.08,17.22,17.22,0,0,0-2.1,4,12.83,12.83,0,0,0-.91,4.62,3.62,3.62,0,0,0,1.32,2.95,5,5,0,0,0,3.17,1,8,8,0,0,0,4.39-1.33A11.21,11.21,0,0,0,168.79,127.69Z" transform="translate(-11.07 -8.31)"/><path class="cls-4" d="M181.79,135l.8-2.21a8.19,8.19,0,0,1-5.69,2.55,4.89,4.89,0,0,1-2.3-.51,2.44,2.44,0,0,1-1.25-1.28,3.85,3.85,0,0,1-.1-1.89,14.6,14.6,0,0,1,.71-2.37l3.39-9.31h2.55l-3,8.33a16.64,16.64,0,0,0-.82,2.69,1.79,1.79,0,0,0,.44,1.58,2.31,2.31,0,0,0,1.71.57,5.41,5.41,0,0,0,2.36-.58,5.48,5.48,0,0,0,2-1.6,10.85,10.85,0,0,0,1.49-2.93l2.93-8h2.55l-5.47,15Z" transform="translate(-11.07 -8.31)"/><path class="cls-4" d="M188.67,130.48l2.66-.39a2.6,2.6,0,0,0,.34,2.32,3,3,0,0,0,2.42.8,5.2,5.2,0,0,0,2.86-.72,3.42,3.42,0,0,0,1.46-1.67,1.13,1.13,0,0,0-.26-1.36,7.74,7.74,0,0,0-2.29-.86,17.34,17.34,0,0,1-3.44-1.22,2.26,2.26,0,0,1-1.12-1.43,3.42,3.42,0,0,1,.17-2,5.64,5.64,0,0,1,1.14-1.86,7,7,0,0,1,1.77-1.42,7.89,7.89,0,0,1,1.89-.74,8.84,8.84,0,0,1,2.31-.3,7.23,7.23,0,0,1,2.92.51,2.55,2.55,0,0,1,1.47,1.38,4.41,4.41,0,0,1,0,2.33l-2.61.34a2,2,0,0,0-.32-1.81,2.67,2.67,0,0,0-2.06-.65,5.27,5.27,0,0,0-2.72.58,2.72,2.72,0,0,0-1.24,1.36,1.17,1.17,0,0,0,0,.89,1.32,1.32,0,0,0,.73.68c.22.09.89.31,2,.65a22.2,22.2,0,0,1,3.34,1.18,2.26,2.26,0,0,1,1.19,1.34,3.35,3.35,0,0,1-.18,2.18,6.46,6.46,0,0,1-1.62,2.4,7.94,7.94,0,0,1-2.78,1.74,9.54,9.54,0,0,1-3.39.62q-2.93,0-4-1.22A4.07,4.07,0,0,1,188.67,130.48Z" transform="translate(-11.07 -8.31)"/><path class="cls-4" d="M208.94,132.69l-.45,2.25a10.75,10.75,0,0,1-2,.23,3.47,3.47,0,0,1-2-.44,1.51,1.51,0,0,1-.66-1.15,9.82,9.82,0,0,1,.78-3l3.15-8.64h-1.87l.72-2h1.87l1.35-3.72,3.09-1.53L211,119.94h2.56l-.72,2h-2.56l-3.2,8.79a4.79,4.79,0,0,0-.37,1.4.65.65,0,0,0,.26.5,1.32,1.32,0,0,0,.8.18A9,9,0,0,0,208.94,132.69Z" transform="translate(-11.07 -8.31)"/><path class="cls-4" d="M212.38,127.45a12,12,0,0,1,4.57-6.18,9.56,9.56,0,0,1,5.33-1.67q3.1,0,4.33,2t-.07,5.61A14.1,14.1,0,0,1,224,131.8a10.5,10.5,0,0,1-3.47,2.59,9.48,9.48,0,0,1-4,.92q-3.15,0-4.36-2T212.38,127.45Zm2.62,0q-1,2.89-.31,4.32a2.71,2.71,0,0,0,2.65,1.44,5.8,5.8,0,0,0,3.68-1.45,9.8,9.8,0,0,0,2.86-4.4q1-2.79.27-4.23a2.71,2.71,0,0,0-2.63-1.44,5.83,5.83,0,0,0-3.69,1.43A9.59,9.59,0,0,0,215,127.45Z" transform="translate(-11.07 -8.31)"/><path class="cls-4" d="M226.71,135l5.47-15h2.28l-.77,2.11a9,9,0,0,1,2.53-1.78,6.68,6.68,0,0,1,2.92-.67,3.78,3.78,0,0,1,2.49.7,2.37,2.37,0,0,1,.8,1.93,8.12,8.12,0,0,1,5.6-2.63c1.49,0,2.49.41,3,1.24s.44,2.1-.18,3.81L247.07,135h-2.53L248,125.5a7.47,7.47,0,0,0,.56-2.2,1.34,1.34,0,0,0-.51-1.08,2.12,2.12,0,0,0-1.37-.41,5,5,0,0,0-3,1.05,7.09,7.09,0,0,0-2.28,3.38L238.18,135h-2.55l3.55-9.76a4,4,0,0,0,.3-2.54c-.21-.57-.79-.85-1.73-.85a4.83,4.83,0,0,0-2.19.57,5.43,5.43,0,0,0-1.93,1.66,12.59,12.59,0,0,0-1.55,3.14L229.26,135Z" transform="translate(-11.07 -8.31)"/><path class="cls-4" d="M251.46,130.48l2.66-.39a2.6,2.6,0,0,0,.34,2.32,3,3,0,0,0,2.42.8,5.21,5.21,0,0,0,2.86-.72,3.42,3.42,0,0,0,1.46-1.67,1.13,1.13,0,0,0-.26-1.36,7.73,7.73,0,0,0-2.29-.86,17.35,17.35,0,0,1-3.44-1.22,2.26,2.26,0,0,1-1.12-1.43,3.42,3.42,0,0,1,.17-2,5.63,5.63,0,0,1,1.14-1.86,7,7,0,0,1,1.77-1.42,7.89,7.89,0,0,1,1.89-.74,8.84,8.84,0,0,1,2.31-.3,7.22,7.22,0,0,1,2.92.51,2.55,2.55,0,0,1,1.47,1.38,4.41,4.41,0,0,1,0,2.33l-2.61.34a2,2,0,0,0-.32-1.81,2.67,2.67,0,0,0-2.06-.65,5.27,5.27,0,0,0-2.72.58,2.72,2.72,0,0,0-1.24,1.36,1.17,1.17,0,0,0,0,.89,1.32,1.32,0,0,0,.73.68c.22.09.89.31,2,.65A22.2,22.2,0,0,1,262.9,127a2.26,2.26,0,0,1,1.19,1.34,3.35,3.35,0,0,1-.18,2.18,6.45,6.45,0,0,1-1.62,2.4,7.93,7.93,0,0,1-2.78,1.74,9.53,9.53,0,0,1-3.39.62q-2.93,0-4-1.22A4.07,4.07,0,0,1,251.46,130.48Z" transform="translate(-11.07 -8.31)"/><path class="cls-4" d="M283.86,133.11a15,15,0,0,1-3.34,1.7,9.5,9.5,0,0,1-3,.5q-2.47,0-3.37-1.21A3.15,3.15,0,0,1,274,131a6,6,0,0,1,1.23-2,7.07,7.07,0,0,1,1.85-1.47,9.23,9.23,0,0,1,2.14-.83,22.41,22.41,0,0,1,2.4-.38,28.29,28.29,0,0,0,4.86-.88l.25-.66q.57-1.56.08-2.19a3.12,3.12,0,0,0-2.58-.86,5.71,5.71,0,0,0-2.88.63,6.44,6.44,0,0,0-2.08,2.23l-2.37-.34a10,10,0,0,1,2.06-2.58,7.87,7.87,0,0,1,2.8-1.51,11.67,11.67,0,0,1,3.6-.53,7.6,7.6,0,0,1,3,.46,2.47,2.47,0,0,1,1.35,1.14,3.1,3.1,0,0,1,.16,1.73,16.2,16.2,0,0,1-.73,2.35l-1.24,3.4a41.68,41.68,0,0,0-1.47,4.49,4.78,4.78,0,0,0,0,1.8h-2.66A4.84,4.84,0,0,1,283.86,133.11Zm1.86-5.68a23.36,23.36,0,0,1-4.51,1,12.48,12.48,0,0,0-2.41.51,3.64,3.64,0,0,0-1.31.83,3.23,3.23,0,0,0-.8,1.21,1.69,1.69,0,0,0,.15,1.7,2.44,2.44,0,0,0,2,.68A6.88,6.88,0,0,0,284,130.9a8.53,8.53,0,0,0,1.34-2.55Z" transform="translate(-11.07 -8.31)"/><path class="cls-4" d="M289.49,135l5.47-15h2.29l-.78,2.13a8,8,0,0,1,5.68-2.48,5.1,5.1,0,0,1,2.32.49,2.36,2.36,0,0,1,1.24,1.28,3.88,3.88,0,0,1,.11,1.88,16.71,16.71,0,0,1-.76,2.48L301.7,135h-2.55l3.33-9.14a7.2,7.2,0,0,0,.55-2.33,1.52,1.52,0,0,0-.61-1.23,2.57,2.57,0,0,0-1.61-.46,5.68,5.68,0,0,0-3.18,1,7.68,7.68,0,0,0-2.61,3.92l-3,8.2Z" transform="translate(-11.07 -8.31)"/><path class="cls-4" d="M315.35,135l.69-1.89a7,7,0,0,1-5,2.24,4.34,4.34,0,0,1-2.94-1,4.06,4.06,0,0,1-1.33-2.77,9.3,9.3,0,0,1,.66-4.08,15,15,0,0,1,2.24-4.08,10,10,0,0,1,3.27-2.81,7.87,7.87,0,0,1,3.71-1,3.94,3.94,0,0,1,2.21.57,3,3,0,0,1,1.18,1.5l2.71-7.44h2.53L317.72,135Zm-5.32-7.5q-1.05,2.89-.35,4.32a2.42,2.42,0,0,0,2.35,1.42,5.25,5.25,0,0,0,3.33-1.37,9.42,9.42,0,0,0,2.69-4.17c.75-2.05.9-3.57.46-4.53a2.42,2.42,0,0,0-2.4-1.44,5.17,5.17,0,0,0-3.34,1.39A10.11,10.11,0,0,0,310,127.46Z" transform="translate(-11.07 -8.31)"/><path class="cls-4" d="M347.54,127.69l2.49.7a15.46,15.46,0,0,1-5,5.16,11.53,11.53,0,0,1-6.13,1.77,7.52,7.52,0,0,1-5-1.36,5.34,5.34,0,0,1-1.76-4,13.81,13.81,0,0,1,.93-5.56,17.69,17.69,0,0,1,3.29-5.65,14.36,14.36,0,0,1,4.85-3.66,13.09,13.09,0,0,1,5.49-1.25,6.25,6.25,0,0,1,4.65,1.58,5.51,5.51,0,0,1,1.34,4.46l-2.94.64a4.32,4.32,0,0,0-.89-3.3,4.09,4.09,0,0,0-3.08-1,8.83,8.83,0,0,0-4.42,1.14,10.17,10.17,0,0,0-3.37,3.08,17.19,17.19,0,0,0-2.1,4,12.85,12.85,0,0,0-.91,4.62,3.62,3.62,0,0,0,1.33,2.95,5,5,0,0,0,3.17,1,8,8,0,0,0,4.39-1.33A11.21,11.21,0,0,0,347.54,127.69Z" transform="translate(-11.07 -8.31)"/><path class="cls-4" d="M352.48,127.45a12,12,0,0,1,4.57-6.18,9.56,9.56,0,0,1,5.33-1.67q3.1,0,4.33,2t-.07,5.61a14.09,14.09,0,0,1-2.53,4.56,10.48,10.48,0,0,1-3.47,2.59,9.48,9.48,0,0,1-4,.92q-3.15,0-4.36-2T352.48,127.45Zm2.62,0q-1,2.89-.31,4.32a2.71,2.71,0,0,0,2.65,1.44,5.79,5.79,0,0,0,3.68-1.45,9.8,9.8,0,0,0,2.86-4.4q1-2.79.27-4.23a2.71,2.71,0,0,0-2.63-1.44,5.82,5.82,0,0,0-3.69,1.43A9.6,9.6,0,0,0,355.1,127.45Z" transform="translate(-11.07 -8.31)"/><path class="cls-4" d="M376.65,135l.8-2.21a8.19,8.19,0,0,1-5.69,2.55,4.9,4.9,0,0,1-2.3-.51,2.43,2.43,0,0,1-1.24-1.28,3.81,3.81,0,0,1-.1-1.89,14.79,14.79,0,0,1,.71-2.37l3.39-9.31h2.55l-3,8.33a17,17,0,0,0-.82,2.69,1.79,1.79,0,0,0,.45,1.58,2.31,2.31,0,0,0,1.72.57,5.41,5.41,0,0,0,2.36-.58,5.48,5.48,0,0,0,2-1.6,10.85,10.85,0,0,0,1.49-2.93l2.93-8h2.55l-5.47,15Z" transform="translate(-11.07 -8.31)"/><path class="cls-4" d="M382.89,135l5.47-15h2.29l-.83,2.28a10.73,10.73,0,0,1,2.39-2.11,3.73,3.73,0,0,1,1.82-.51,3.63,3.63,0,0,1,2.32.82l-1.74,2.37a2.68,2.68,0,0,0-1.67-.55,3.26,3.26,0,0,0-1.68.5,4.6,4.6,0,0,0-1.45,1.39,13.77,13.77,0,0,0-1.5,3L385.44,135Z" transform="translate(-11.07 -8.31)"/><path class="cls-4" d="M392.58,135l5.47-15h2.55l-5.47,15Zm6.48-17.81,1.06-2.93h2.55l-1.06,2.93Z" transform="translate(-11.07 -8.31)"/><path class="cls-4" d="M411,130.13l2.52.32a10.73,10.73,0,0,1-3.61,3.58,9.13,9.13,0,0,1-4.76,1.28q-3.3,0-4.49-2t.14-5.69a12.66,12.66,0,0,1,4.1-5.88,9.33,9.33,0,0,1,5.82-2.09q3,0,4.18,2.05t-.19,5.77c-.05.15-.14.38-.26.68h-11.2q-.76,2.47,0,3.79a2.86,2.86,0,0,0,2.67,1.31,5.22,5.22,0,0,0,2.66-.74A8.26,8.26,0,0,0,411,130.13ZM404.18,126h8.39a4.28,4.28,0,0,0,.07-2.84,2.6,2.6,0,0,0-2.62-1.47,5.73,5.73,0,0,0-3.38,1.17A7.36,7.36,0,0,0,404.18,126Z" transform="translate(-11.07 -8.31)"/><path class="cls-4" d="M415.09,135l5.47-15h2.29l-.83,2.28a10.73,10.73,0,0,1,2.39-2.11,3.73,3.73,0,0,1,1.82-.51,3.64,3.64,0,0,1,2.32.82l-1.74,2.37a2.68,2.68,0,0,0-1.67-.55,3.26,3.26,0,0,0-1.68.5,4.57,4.57,0,0,0-1.45,1.39,13.46,13.46,0,0,0-1.5,3L417.64,135Z" transform="translate(-11.07 -8.31)"/><path class="cls-4" d="M450.58,127.69l2.49.7a15.48,15.48,0,0,1-5,5.16,11.53,11.53,0,0,1-6.13,1.77,7.52,7.52,0,0,1-5-1.36,5.34,5.34,0,0,1-1.76-4,13.81,13.81,0,0,1,.93-5.56,17.69,17.69,0,0,1,3.29-5.65,14.37,14.37,0,0,1,4.85-3.66,13.09,13.09,0,0,1,5.49-1.25,6.25,6.25,0,0,1,4.65,1.58,5.51,5.51,0,0,1,1.34,4.46l-2.94.64a4.32,4.32,0,0,0-.89-3.3,4.09,4.09,0,0,0-3.07-1,8.83,8.83,0,0,0-4.42,1.14,10.17,10.17,0,0,0-3.37,3.08,17.15,17.15,0,0,0-2.1,4,12.83,12.83,0,0,0-.91,4.62,3.62,3.62,0,0,0,1.32,2.95,5,5,0,0,0,3.17,1,8,8,0,0,0,4.39-1.33A11.21,11.21,0,0,0,450.58,127.69Z" transform="translate(-11.07 -8.31)"/><path class="cls-4" d="M455.52,127.45a12,12,0,0,1,4.57-6.18,9.56,9.56,0,0,1,5.33-1.67q3.1,0,4.33,2t-.07,5.61a14.09,14.09,0,0,1-2.53,4.56,10.52,10.52,0,0,1-3.47,2.59,9.47,9.47,0,0,1-4,.92q-3.15,0-4.36-2T455.52,127.45Zm2.62,0q-1,2.89-.31,4.32a2.71,2.71,0,0,0,2.65,1.44,5.8,5.8,0,0,0,3.68-1.45,9.8,9.8,0,0,0,2.86-4.4q1-2.79.27-4.23a2.71,2.71,0,0,0-2.63-1.44,5.84,5.84,0,0,0-3.69,1.43A9.59,9.59,0,0,0,458.14,127.45Z" transform="translate(-11.07 -8.31)"/><path class="cls-4" d="M469.85,135l5.47-15h2.28l-.77,2.11a9,9,0,0,1,2.53-1.78,6.68,6.68,0,0,1,2.92-.67,3.78,3.78,0,0,1,2.49.7,2.37,2.37,0,0,1,.8,1.93,8.12,8.12,0,0,1,5.6-2.63c1.49,0,2.49.41,3,1.24s.44,2.1-.18,3.81L490.21,135h-2.53l3.44-9.46a7.48,7.48,0,0,0,.56-2.2,1.34,1.34,0,0,0-.51-1.08,2.12,2.12,0,0,0-1.37-.41,5,5,0,0,0-3,1.05,7.09,7.09,0,0,0-2.28,3.38L481.32,135h-2.55l3.55-9.76a4,4,0,0,0,.3-2.54c-.21-.57-.79-.85-1.73-.85a4.82,4.82,0,0,0-2.19.57,5.41,5.41,0,0,0-1.93,1.66,12.53,12.53,0,0,0-1.55,3.14L472.39,135Z" transform="translate(-11.07 -8.31)"/><path class="cls-4" d="M491.89,140.72l7.56-20.78h2.32l-.71,2a9.64,9.64,0,0,1,2.48-1.72,6.45,6.45,0,0,1,2.71-.57,4.41,4.41,0,0,1,3,1,3.86,3.86,0,0,1,1.2,2.8,10.15,10.15,0,0,1-.69,3.95,14.34,14.34,0,0,1-2.34,4.15,10.6,10.6,0,0,1-3.44,2.83,8.11,8.11,0,0,1-3.67,1,3.73,3.73,0,0,1-2.09-.54,3.07,3.07,0,0,1-1.17-1.36l-2.66,7.32ZM499,127.54q-1.06,2.9-.39,4.29a2.39,2.39,0,0,0,2.34,1.38,5.39,5.39,0,0,0,3.43-1.44,10.11,10.11,0,0,0,2.83-4.45q1-2.88.38-4.3a2.33,2.33,0,0,0-2.3-1.43,5.48,5.48,0,0,0-3.43,1.52A10.24,10.24,0,0,0,499,127.54Z" transform="translate(-11.07 -8.31)"/><path class="cls-4" d="M520.57,133.11a14.94,14.94,0,0,1-3.34,1.7,9.5,9.5,0,0,1-3,.5q-2.47,0-3.37-1.21a3.15,3.15,0,0,1-.2-3.09,6,6,0,0,1,1.23-2,7.07,7.07,0,0,1,1.85-1.47,9.21,9.21,0,0,1,2.14-.83,22.46,22.46,0,0,1,2.4-.38,28.24,28.24,0,0,0,4.86-.88l.25-.66q.57-1.56.08-2.19a3.12,3.12,0,0,0-2.58-.86,5.71,5.71,0,0,0-2.88.63,6.45,6.45,0,0,0-2.08,2.23l-2.37-.34a10,10,0,0,1,2.06-2.58,7.87,7.87,0,0,1,2.8-1.51,11.65,11.65,0,0,1,3.6-.53,7.6,7.6,0,0,1,3,.46,2.47,2.47,0,0,1,1.35,1.14,3.09,3.09,0,0,1,.16,1.73,16.28,16.28,0,0,1-.73,2.35l-1.23,3.4a41.23,41.23,0,0,0-1.47,4.49,4.79,4.79,0,0,0,0,1.8h-2.66A4.86,4.86,0,0,1,520.57,133.11Zm1.86-5.68a23.37,23.37,0,0,1-4.51,1,12.45,12.45,0,0,0-2.41.51,3.62,3.62,0,0,0-1.3.83,3.22,3.22,0,0,0-.8,1.21,1.7,1.7,0,0,0,.15,1.7,2.44,2.44,0,0,0,2,.68,6.88,6.88,0,0,0,5.18-2.41,8.52,8.52,0,0,0,1.34-2.55Z" transform="translate(-11.07 -8.31)"/><path class="cls-4" d="M526.21,135l5.47-15H534l-.78,2.13a8,8,0,0,1,5.68-2.48,5.09,5.09,0,0,1,2.32.49,2.36,2.36,0,0,1,1.24,1.28,3.87,3.87,0,0,1,.11,1.88,16.68,16.68,0,0,1-.76,2.48L538.42,135h-2.55l3.33-9.14a7.12,7.12,0,0,0,.55-2.33,1.52,1.52,0,0,0-.61-1.23,2.56,2.56,0,0,0-1.61-.46,5.68,5.68,0,0,0-3.18,1,7.66,7.66,0,0,0-2.61,3.92l-3,8.2Z" transform="translate(-11.07 -8.31)"/><path class="cls-4" d="M540.1,140.75l.59-2.39a4.8,4.8,0,0,0,1.38.23,3.49,3.49,0,0,0,1.46-.28,3.91,3.91,0,0,0,1.12-.79,20.87,20.87,0,0,0,1.47-1.9l.46-.62-.22-15h2.74l0,8.7a33.57,33.57,0,0,1-.18,3.48q1.07-1.76,2.29-3.43l6.4-8.75h2.55l-11.27,15.28q-1.82,2.48-2.67,3.41a8.73,8.73,0,0,1-2.23,1.85,4.82,4.82,0,0,1-2.31.58A4.18,4.18,0,0,1,540.1,140.75Z" transform="translate(-11.07 -8.31)"/><polygon class="cls-3" points="314.55 33.65 568.37 33.72 553.83 72.47 299.68 72.47 314.55 33.65"/><path class="cls-5" d="M321.88,72.29,329.64,50h3l-6.94,19.92h9.6l-.82,2.36Z" transform="translate(-11.07 -8.31)"/><path class="cls-5" d="M346.13,72.85q-4.54,0-6.14-3.18t.25-8.51a18.86,18.86,0,0,1,5.68-8.51,12.8,12.8,0,0,1,8.36-3.18q4.54,0,6.15,3.18t-.25,8.51a18.85,18.85,0,0,1-5.68,8.51A12.79,12.79,0,0,1,346.13,72.85Zm.82-2.36A8.36,8.36,0,0,0,352.79,68,16.75,16.75,0,0,0,357,61.12q1.53-4.38.6-6.84t-4.11-2.46a8.38,8.38,0,0,0-5.83,2.46,16.6,16.6,0,0,0-4.17,6.84q-1.54,4.41-.61,6.89T347,70.49Z" transform="translate(-11.07 -8.31)"/><path class="cls-5" d="M376.77,71.69a28.37,28.37,0,0,1-7.16,1.16q-5.09,0-6.75-3t.31-8.68a18.51,18.51,0,0,1,5.77-8.63,13.71,13.71,0,0,1,8.83-3.06,21,21,0,0,1,6.38,1l-1,2.92a17.61,17.61,0,0,0-6.21-1.57,9.13,9.13,0,0,0-6.22,2.45,16,16,0,0,0-4.31,6.9Q364.83,65.58,366,68t4.87,2.46a12.84,12.84,0,0,0,3.46-.56l2.53-7.26h3Z" transform="translate(-11.07 -8.31)"/><path class="cls-5" d="M381.84,72.29,389.6,50h3l-7.76,22.28Z" transform="translate(-11.07 -8.31)"/><path class="cls-5" d="M389.2,71.88l1.09-3.13a10.87,10.87,0,0,0,5.33,1.75,5.53,5.53,0,0,0,3.21-1,5.1,5.1,0,0,0,2-2.57,3.05,3.05,0,0,0,.06-2.23,5.74,5.74,0,0,0-1.92-2l-1.16-.89A8.33,8.33,0,0,1,395,58.71a4.5,4.5,0,0,1,0-3.33,8.56,8.56,0,0,1,3.27-4.25,8.74,8.74,0,0,1,5.13-1.66,14.66,14.66,0,0,1,4.9.86l-1,2.89a11.49,11.49,0,0,0-4.55-1.39,5.16,5.16,0,0,0-2.9.88,4.31,4.31,0,0,0-1.79,2.2,2.4,2.4,0,0,0,.06,2,7.17,7.17,0,0,0,2,2l1.21.9a8,8,0,0,1,2.78,3.1,5,5,0,0,1-.13,3.51,9,9,0,0,1-3.67,4.67,10.72,10.72,0,0,1-6,1.76A17.14,17.14,0,0,1,389.2,71.88Z" transform="translate(-11.07 -8.31)"/><path class="cls-5" d="M411.33,72.29l6.94-19.92H410.7l.82-2.37h18.15l-.82,2.37h-7.56l-6.94,19.92Z" transform="translate(-11.07 -8.31)"/><path class="cls-5" d="M424.9,72.29,432.66,50h3l-7.76,22.28Z" transform="translate(-11.07 -8.31)"/><path class="cls-5" d="M449.84,71.15a18,18,0,0,1-7.48,1.7q-5,0-6.62-3t.3-8.64a18.59,18.59,0,0,1,5.77-8.65,13.76,13.76,0,0,1,8.86-3.06,23.83,23.83,0,0,1,6.36,1l-1,3a17.28,17.28,0,0,0-6.21-1.58,9.12,9.12,0,0,0-6.23,2.45,16.16,16.16,0,0,0-4.32,6.92q-1.49,4.28-.31,6.73t4.71,2.46a17.37,17.37,0,0,0,7.15-1.94Z" transform="translate(-11.07 -8.31)"/><path class="cls-5" d="M479.4,71.69a28.37,28.37,0,0,1-7.16,1.16q-5.09,0-6.75-3t.31-8.68a18.53,18.53,0,0,1,5.77-8.63,13.71,13.71,0,0,1,8.83-3.06,21,21,0,0,1,6.38,1l-1,2.92a17.61,17.61,0,0,0-6.21-1.57,9.13,9.13,0,0,0-6.22,2.45,16.06,16.06,0,0,0-4.32,6.9q-1.54,4.41-.34,6.86t4.87,2.46a12.82,12.82,0,0,0,3.46-.56l2.53-7.26h3Z" transform="translate(-11.07 -8.31)"/><path class="cls-5" d="M484.5,72.29,492.26,50h6.45q3.07,0,4.21,1.42t.2,4.11a9.61,9.61,0,0,1-2.45,3.78,11.69,11.69,0,0,1-4.06,2.55l3.48,10.43h-3.72l-2.79-9.42h-2.81l-3.28,9.42Zm7.1-11.79h1a8.55,8.55,0,0,0,4.67-1.19,6.49,6.49,0,0,0,2.67-3.48q1.21-3.47-3.59-3.46h-1.9Z" transform="translate(-11.07 -8.31)"/><path class="cls-5" d="M511.68,72.85q-4.54,0-6.15-3.18t.25-8.51a18.86,18.86,0,0,1,5.68-8.51,12.79,12.79,0,0,1,8.36-3.18q4.54,0,6.15,3.18t-.25,8.51A18.87,18.87,0,0,1,520,69.67,12.8,12.8,0,0,1,511.68,72.85Zm.82-2.36A8.36,8.36,0,0,0,518.34,68a16.75,16.75,0,0,0,4.19-6.89q1.52-4.38.6-6.84T519,51.82a8.37,8.37,0,0,0-5.82,2.46A16.59,16.59,0,0,0,509,61.12q-1.54,4.41-.61,6.89T512.5,70.49Z" transform="translate(-11.07 -8.31)"/><path class="cls-5" d="M533.67,50h3l-4.9,14.06q-1.17,3.36-.51,4.88t3.25,1.53a5.79,5.79,0,0,0,4.09-1.44,12,12,0,0,0,2.75-4.87L546.31,50H549l-4.92,14.12a18.66,18.66,0,0,1-2.11,4.49A10.36,10.36,0,0,1,539,71.38a9.82,9.82,0,0,1-5.43,1.48q-4.05,0-5.21-2.14t.41-6.67Z" transform="translate(-11.07 -8.31)"/><path class="cls-5" d="M546.53,72.29,554.29,50h5.8a12,12,0,0,1,3.72.43,2.8,2.8,0,0,1,1.7,1.51,5.39,5.39,0,0,1-.22,3.9A10.77,10.77,0,0,1,561,61.42a12.42,12.42,0,0,1-7.1,2h-1.34l-3.08,8.85ZM553.45,61h1.22a8,8,0,0,0,4.61-1.29A7.09,7.09,0,0,0,562,56.08q.69-2-.17-2.85t-3.54-.86h-1.86Z" transform="translate(-11.07 -8.31)"/></svg>